<svg width="32" height="35" viewBox="0 0 32 35" fill="none" xmlns="http://www.w3.org/2000/svg">
<path d="M31.3286 19.0449L19.9 29.9824C19.4571 30.4131 18.8714 30.625 18.2857 30.625C17.7 30.625 17.1157 30.4114 16.67 29.9841C15.7771 29.1296 15.7771 27.7454 16.67 26.8909L24.2 19.6875H2.28571C1.02356 19.6875 0.000106812 18.71 0.000106812 17.5C0.000106812 16.29 1.02356 15.3125 2.28571 15.3125H24.2L16.6714 8.10742C15.7786 7.25293 15.7786 5.86865 16.6714 5.01416C17.5643 4.15967 19.0107 4.15967 19.9036 5.01416L31.3321 15.9517C32.2214 16.8096 32.2214 18.1904 31.3286 19.0449Z" fill="black"/>
</svg>
