<svg width="44" height="50" viewBox="0 0 44 50" fill="none" xmlns="http://www.w3.org/2000/svg">
<g clip-path="url(#clip0_17_73)">
<path d="M21.8848 13.7695C15.6738 13.7695 10.6641 18.7793 10.6641 24.9902C10.6641 31.2012 15.6738 36.2109 21.8848 36.2109C28.0957 36.2109 33.1055 31.2012 33.1055 24.9902C33.1055 18.7793 28.0957 13.7695 21.8848 13.7695ZM21.8848 32.2852C17.8711 32.2852 14.5898 29.0137 14.5898 24.9902C14.5898 20.9668 17.8613 17.6953 21.8848 17.6953C25.9082 17.6953 29.1797 20.9668 29.1797 24.9902C29.1797 29.0137 25.8984 32.2852 21.8848 32.2852ZM36.1816 13.3105C36.1816 14.7656 35.0098 15.9277 33.5645 15.9277C32.1094 15.9277 30.9473 14.7559 30.9473 13.3105C30.9473 11.8652 32.1191 10.6934 33.5645 10.6934C35.0098 10.6934 36.1816 11.8652 36.1816 13.3105ZM43.6133 15.9668C43.4473 12.4609 42.6465 9.35547 40.0781 6.79687C37.5195 4.23828 34.4141 3.4375 30.9082 3.26172C27.2949 3.05664 16.4648 3.05664 12.8516 3.26172C9.35547 3.42773 6.25 4.22852 3.68164 6.78711C1.11328 9.3457 0.322266 12.4512 0.146484 15.957C-0.0585937 19.5703 -0.0585937 30.4004 0.146484 34.0137C0.3125 37.5195 1.11328 40.625 3.68164 43.1836C6.25 45.7422 9.3457 46.543 12.8516 46.7188C16.4648 46.9238 27.2949 46.9238 30.9082 46.7188C34.4141 46.5527 37.5195 45.752 40.0781 43.1836C42.6367 40.625 43.4375 37.5195 43.6133 34.0137C43.8184 30.4004 43.8184 19.5801 43.6133 15.9668ZM38.9453 37.8906C38.1836 39.8047 36.709 41.2793 34.7852 42.0508C31.9043 43.1934 25.0684 42.9297 21.8848 42.9297C18.7012 42.9297 11.8555 43.1836 8.98438 42.0508C7.07031 41.2891 5.5957 39.8145 4.82422 37.8906C3.68164 35.0098 3.94531 28.1738 3.94531 24.9902C3.94531 21.8066 3.69141 14.9609 4.82422 12.0898C5.58594 10.1758 7.06055 8.70117 8.98438 7.92969C11.8652 6.78711 18.7012 7.05078 21.8848 7.05078C25.0684 7.05078 31.9141 6.79687 34.7852 7.92969C36.6992 8.69141 38.1738 10.166 38.9453 12.0898C40.0879 14.9707 39.8242 21.8066 39.8242 24.9902C39.8242 28.1738 40.0879 35.0195 38.9453 37.8906Z" fill="black"/>
</g>
<defs>
<clipPath id="clip0_17_73">
<rect width="43.75" height="50" fill="white"/>
</clipPath>
</defs>
</svg>
